<?xml version="1.0" encoding="UTF-8" standalone="no"?>
<!DOCTYPE svg PUBLIC "-//W3C//DTD SVG 1.1//EN" "http://www.w3.org/Graphics/SVG/1.1/DTD/svg11.dtd">
<svg width="70%" height="70%" viewBox="0 0 3544 3544" version="1.1" xmlns="http://www.w3.org/2000/svg" xmlnsXlink="http://www.w3.org/1999/xlink" xmlSpace="preserve" style="fill-rule:evenodd;clip-rule:evenodd;stroke-linejoin:round;stroke-miterlimit:2;">
    <g transform="matrix(18.6988,0,0,18.6988,1771.65,1771.65)">
        <g transform="matrix(1,0,0,1,-200,-150)">
            <g transform="matrix(0.1,0,0,-0.1,0,300)">
                <path d="M1855,2409C1587,2356 1371,2193 1253,1955C1213,1875 1193,1812 1175,1710C1152,1577 1136,1590 1318,1590L1475,1590L1488,1667C1513,1825 1616,1969 1758,2043C1843,2088 1872,2089 1911,2051C1949,2013 1948,1994 1908,1986C1779,1962 1643,1834 1605,1703C1597,1676 1625,1660 1737,1628C1805,1608 1837,1605 2000,1605C2163,1605 2195,1608 2263,1628C2375,1660 2403,1676 2395,1703C2357,1834 2221,1962 2093,1986C2052,1994 2051,2013 2089,2051C2128,2089 2157,2088 2242,2043C2384,1969 2487,1825 2512,1667L2525,1590L2682,1590C2864,1590 2848,1577 2825,1710C2789,1912 2706,2068 2562,2201C2457,2298 2351,2356 2204,2396C2133,2415 1926,2423 1855,2409ZM2143,2175C2348,2132 2538,1949 2590,1742L2603,1692L2735,1662L2655,1661L2574,1660L2562,1719C2520,1919 2337,2103 2131,2150C1939,2194 1735,2135 1594,1995C1515,1916 1458,1816 1438,1719L1426,1660L1345,1661L1265,1662L1397,1692L1410,1742C1448,1893 1585,2062 1723,2129C1844,2188 2002,2205 2143,2175ZM2120,1925C2145,1917 2188,1893 2215,1872C2264,1835 2330,1750 2330,1724C2330,1704 2286,1695 2203,1696C2145,1697 2119,1703 2065,1729L1999,1760L1949,1734C1864,1691 1729,1679 1680,1710C1658,1724 1701,1801 1758,1850C1862,1942 1987,1968 2120,1925Z" style="fill-rule:nonzero;"/>
                <path d="M1550,1604C1550,1588 1557,1566 1565,1556C1586,1528 1585,1454 1564,1446C1537,1436 1551,1282 1593,1130C1636,975 1642,929 1632,863L1623,812L1694,753C1733,720 1780,681 1797,666L1830,638L1840,666C1858,711 1842,751 1786,804C1731,856 1737,856 1812,802C1838,784 1862,760 1865,749C1873,726 1902,724 1959,745C1995,757 2005,757 2041,745C2098,724 2127,726 2135,749C2138,760 2162,784 2188,802C2263,856 2269,856 2214,804C2158,751 2142,711 2160,666L2170,638L2203,666C2220,681 2267,720 2306,753L2377,812L2368,863C2358,929 2364,975 2407,1130C2449,1282 2463,1436 2436,1446C2415,1454 2414,1528 2435,1556C2443,1566 2450,1588 2450,1604C2450,1628 2447,1632 2428,1627C2223,1578 2207,1576 2000,1576C1793,1576 1777,1578 1573,1627C1553,1632 1550,1628 1550,1604ZM1835,1314C1876,1302 1928,1296 2000,1296C2119,1296 2189,1313 2288,1365L2350,1398L2350,1335C2350,1259 2322,1162 2280,1097C2244,1040 2242,1013 2272,974L2295,945L2260,971C2241,986 2223,1008 2222,1020C2219,1040 2214,1037 2192,995C2177,968 2160,945 2153,943C2137,937 2069,1000 2054,1035C2046,1054 2041,1058 2040,1047C2040,1037 2047,1014 2054,995C2068,963 2067,959 2050,950C2040,945 2017,940 2000,940C1983,940 1960,945 1950,950C1933,959 1932,963 1946,995C1953,1014 1960,1037 1960,1047C1959,1058 1954,1054 1946,1035C1931,1000 1863,937 1847,943C1840,945 1823,968 1808,995C1786,1037 1781,1040 1778,1020C1777,1008 1759,986 1740,971L1705,945L1728,974C1758,1013 1756,1040 1720,1097C1678,1162 1650,1259 1650,1335L1650,1398L1713,1365C1747,1347 1802,1324 1835,1314ZM1955,898L2000,876L2045,898C2070,910 2097,920 2104,920C2117,920 2160,863 2160,846C2160,843 2088,840 2000,840C1912,840 1840,843 1840,846C1840,863 1883,920 1896,920C1903,920 1930,910 1955,898Z" style="fill-rule:nonzero;"/>
                <path d="M1685,1293C1689,1272 1699,1233 1708,1205C1723,1161 1725,1158 1728,1183C1730,1198 1733,1210 1735,1210C1736,1210 1767,1196 1803,1179L1869,1149L1847,1112L1826,1076L1892,1123C1982,1188 2018,1188 2108,1123L2174,1076L2153,1112L2131,1149L2197,1179C2233,1196 2264,1210 2266,1210C2268,1210 2270,1198 2271,1183C2272,1155 2272,1155 2286,1189C2302,1225 2323,1321 2316,1327C2314,1330 2290,1320 2263,1306C2113,1231 1887,1230 1739,1306C1712,1319 1688,1330 1685,1330C1682,1330 1682,1313 1685,1293Z" style="fill-rule:nonzero;"/>
                <path d="M1931,685C1843,648 1837,618 1912,595C1977,576 2023,576 2088,595C2165,618 2157,648 2064,686C1995,714 2000,714 1931,685Z" style="fill-rule:nonzero;"/>
            </g>
        </g>
    </g>
</svg>
